<svg id="Layer_1" data-name="Layer 1" xmlns="http://www.w3.org/2000/svg" viewBox="0 0 289 309.73"><title>KakumaBasemapLegend</title><rect x="0.5" y="0.5" width="288" height="308.73" fill="#fff" stroke="#fff" stroke-miterlimit="10"/><line x1="0.5" y1="247.48" x2="288.5" y2="247.48" fill="#fff" stroke="#fff" stroke-miterlimit="10"/><line x1="0.5" y1="185.74" x2="288.5" y2="185.74" fill="#fff" stroke="#fff" stroke-miterlimit="10"/><line x1="0.5" y1="123.99" x2="288.5" y2="123.99" fill="#fff" stroke="#fff" stroke-miterlimit="10"/><line x1="0.5" y1="62.25" x2="288.5" y2="62.25" fill="#fff" stroke="#fff" stroke-miterlimit="10"/><line x1="144.5" y1="0.5" x2="144.5" y2="309.23" fill="#fff" stroke="#fff" stroke-miterlimit="10"/><line x1="36.63" y1="33.45" x2="103.55" y2="33.45" fill="none" stroke="#000" stroke-miterlimit="10"/><line x1="36.63" y1="93.77" x2="103.55" y2="93.77" fill="none" stroke="#0000d9" stroke-miterlimit="10"/><rect x="36.63" y="135.85" width="66.92" height="34.47" fill="sienna" stroke="sienna" stroke-miterlimit="10"/><rect x="36.63" y="198.85" width="66.92" height="34.47" fill="red" stroke="red" stroke-miterlimit="10"/><rect x="36.63" y="261.85" width="66.92" height="34.47" fill="aqua" stroke="aqua" stroke-miterlimit="10"/><text transform="translate(166.44 33.45)" font-size="14.03" font-family="MyriadPro-Regular, Myriad Pro" letter-spacing="0em">R<tspan x="7.6" y="0" letter-spacing="0em">oads</tspan></text><text transform="translate(166.44 93.77)" font-size="14.03" font-family="MyriadPro-Regular, Myriad Pro"><tspan letter-spacing="0.01em">R</tspan><tspan x="7.69" y="0">i</tspan><tspan x="10.97" y="0" letter-spacing="-0.01em">v</tspan><tspan x="17.57" y="0" letter-spacing="0em">ers</tspan></text><text transform="translate(166.44 154.86)" font-size="14.03" font-family="MyriadPro-Regular, Myriad Pro"><tspan letter-spacing="0.01em">S</tspan><tspan x="7" y="0">ettleme</tspan><tspan x="52.37" y="0" letter-spacing="0em">n</tspan><tspan x="60.1" y="0">ts</tspan></text><text transform="translate(166.44 216.09)" font-size="14.03" font-family="MyriadPro-Regular, Myriad Pro"><tspan letter-spacing="-0.07em">T</tspan><tspan x="5.97" y="0" letter-spacing="-0.01em">o</tspan><tspan x="13.58" y="0">wn</tspan></text><text transform="translate(166.44 279.09)" font-size="14.03" font-family="MyriadPro-Regular, Myriad Pro"><tspan letter-spacing="-0.03em">W</tspan><tspan x="11.4" y="0" letter-spacing="0em">a</tspan><tspan x="18.11" y="0" letter-spacing="-0.01em">t</tspan><tspan x="22.67" y="0">e</tspan><tspan x="29.69" y="0" letter-spacing="0.03em">r</tspan><tspan x="34.63" y="0" letter-spacing="0em">w</tspan><tspan x="44.9" y="0" letter-spacing="-0.01em">a</tspan><tspan x="51.55" y="0" letter-spacing="-0.01em">y</tspan><tspan x="58.07" y="0">s</tspan></text></svg>