<svg id="Layer_1" data-name="Layer 1" xmlns="http://www.w3.org/2000/svg" xmlns:xlink="http://www.w3.org/1999/xlink" viewBox="0 0 289 561"><defs><style>.cls-1{fill:#fff;stroke:#666;}.cls-1,.cls-15,.cls-21,.cls-22,.cls-23,.cls-38{stroke-miterlimit:10;}.cls-2{font-size:10.62px;}.cls-2,.cls-7{font-family:MyriadPro-Regular, Myriad Pro;}.cls-3{letter-spacing:0em;}.cls-4{letter-spacing:0em;}.cls-5{letter-spacing:0.02em;}.cls-6{letter-spacing:0em;}.cls-7{font-size:14.03px;}.cls-8{letter-spacing:0em;}.cls-9{letter-spacing:0em;}.cls-10{letter-spacing:-0.02em;}.cls-11{letter-spacing:0em;}.cls-12{letter-spacing:0.02em;}.cls-13{letter-spacing:0em;}.cls-14{letter-spacing:-0.01em;}.cls-15{fill:#b25959;stroke:#f9e606;}.cls-16{letter-spacing:0em;}.cls-17{letter-spacing:0em;}.cls-18{letter-spacing:-0.04em;}.cls-19{letter-spacing:-0.07em;}.cls-20{letter-spacing:-0.01em;}.cls-21,.cls-22,.cls-23,.cls-38{fill:none;}.cls-21{stroke:#050000;}.cls-21,.cls-22,.cls-23{stroke-width:3px;}.cls-22,.cls-23{stroke:orange;}.cls-23{stroke-dasharray:10.29 10.29;}.cls-24{letter-spacing:0.01em;}.cls-25{letter-spacing:0em;}.cls-26{letter-spacing:-0.01em;}.cls-27{fill:green;}.cls-28{letter-spacing:-0.05em;}.cls-29{letter-spacing:0.02em;}.cls-30{letter-spacing:-0.04em;}.cls-31{letter-spacing:-0.03em;}.cls-32{letter-spacing:0.01em;}.cls-33{letter-spacing:0.01em;}.cls-34{letter-spacing:-0.01em;}.cls-35{letter-spacing:0em;}.cls-36{letter-spacing:0.01em;}.cls-37{fill:#ff0;}.cls-38{stroke:salmon;}.cls-39{letter-spacing:-0.01em;}.cls-40{letter-spacing:0.01em;}.cls-41{letter-spacing:0.01em;}</style></defs><title>Untitled-3</title><rect class="cls-1" x="0.5" y="0.5" width="288" height="560"/><line class="cls-1" x1="0.5" y1="509.59" x2="288.5" y2="509.59"/><line class="cls-1" x1="0.5" y1="458.68" x2="288.5" y2="458.68"/><line class="cls-1" x1="0.5" y1="407.77" x2="288.5" y2="407.77"/><line class="cls-1" x1="0.5" y1="356.86" x2="288.5" y2="356.86"/><line class="cls-1" x1="0.5" y1="305.96" x2="288.5" y2="305.96"/><line class="cls-1" x1="0.5" y1="255.05" x2="288.5" y2="255.05"/><line class="cls-1" x1="0.5" y1="204.14" x2="288.5" y2="204.14"/><line class="cls-1" x1="0.5" y1="153.23" x2="288.5" y2="153.23"/><line class="cls-1" x1="0.5" y1="102.32" x2="288.5" y2="102.32"/><line class="cls-1" x1="0.5" y1="51.41" x2="288.5" y2="51.41"/><line class="cls-1" x1="144.5" y1="0.5" x2="144.5" y2="560.5"/><image width="512" height="512" transform="translate(59.47 62.7) scale(0.06)" xlink:href="../../../../1_Kepler/images/location.png"/><text class="cls-2" transform="translate(181.58 76.05) scale(1.32 1)"><tspan class="cls-3">A</tspan><tspan x="6.47" y="0">i</tspan><tspan class="cls-4" x="8.95" y="0">r</tspan><tspan x="12.47" y="0">po</tspan><tspan class="cls-5" x="24.35" y="0">r</tspan><tspan class="cls-6" x="28.07" y="0">ts</tspan></text><image width="512" height="512" transform="translate(59.62 114.5) scale(0.06)" xlink:href="../../../../1_Kepler/images/location(2).png"/><text class="cls-7" transform="translate(181.58 125.92)"><tspan class="cls-8">A</tspan><tspan x="8.54" y="0">irst</tspan><tspan class="cls-9" x="26.61" y="0">r</tspan><tspan x="31.25" y="0">ips</tspan></text><image width="512" height="512" transform="translate(58.66 162.66) scale(0.07)" xlink:href="../../../../1_Kepler/images/port-sign.png"/><text class="cls-7" transform="translate(182.58 179.85)"><tspan class="cls-10">P</tspan><tspan class="cls-11" x="7.11" y="0">o</tspan><tspan class="cls-12" x="14.81" y="0">r</tspan><tspan x="19.74" y="0">ts</tspan></text><image width="512" height="512" transform="translate(58.73 217.05) scale(0.07)" xlink:href="../../../../1_Kepler/images/tent(3).png"/><text class="cls-7" transform="translate(181.58 234.16)"><tspan class="cls-13">R</tspan><tspan x="7.6" y="0">efugee </tspan><tspan class="cls-14" x="51.32" y="0">C</tspan><tspan x="59.36" y="0">amp</tspan></text><circle class="cls-15" cx="75.57" cy="26.64" r="16.56"/><text class="cls-7" transform="translate(181.58 26.64)"><tspan class="cls-16">C</tspan><tspan class="cls-17" x="8.09" y="0">ities &amp;</tspan><tspan class="cls-18" x="43.34" y="0"> </tspan><tspan class="cls-19" x="45.74" y="0">T</tspan><tspan class="cls-20" x="51.72" y="0">o</tspan><tspan x="59.32" y="0">wns</tspan></text><line class="cls-21" x1="33.85" y1="280.5" x2="117.85" y2="280.5"/><text class="cls-7" transform="translate(182.58 280.5)"><tspan class="cls-13">R</tspan><tspan x="7.6" y="0">oad</tspan></text><line class="cls-22" x1="33.85" y1="332.5" x2="39.85" y2="332.5"/><line class="cls-23" x1="50.13" y1="332.5" x2="106.7" y2="332.5"/><line class="cls-22" x1="111.85" y1="332.5" x2="117.85" y2="332.5"/><text class="cls-7" transform="translate(181.58 332.5)"><tspan class="cls-24">R</tspan><tspan x="7.71" y="0">ail</tspan><tspan class="cls-25" x="21.07" y="0">w</tspan><tspan class="cls-26" x="31.33" y="0">a</tspan><tspan x="37.98" y="0">y</tspan></text><rect class="cls-27" x="58.66" y="368.5" width="34.37" height="34.37"/><text class="cls-7" transform="translate(182.58 378.69)"><tspan class="cls-28">T</tspan><tspan x="6.34" y="0">u</tspan><tspan class="cls-13" x="14.07" y="0">r</tspan><tspan class="cls-29" x="18.71" y="0">k</tspan><tspan x="25.54" y="0">ana</tspan><tspan class="cls-30" x="46.85" y="0"> </tspan><tspan class="cls-31" x="49.32" y="0">W</tspan><tspan x="60.72" y="0">est </tspan><tspan x="0" y="16.83">Su</tspan><tspan class="cls-32" x="14.64" y="16.83">b</tspan><tspan class="cls-33" x="22.83" y="16.83">-</tspan><tspan class="cls-34" x="27.34" y="16.83">C</tspan><tspan class="cls-11" x="35.32" y="16.83">ou</tspan><tspan class="cls-35" x="50.75" y="16.83">n</tspan><tspan class="cls-36" x="58.48" y="16.83">t</tspan><tspan x="63.25" y="16.83">y</tspan></text><rect class="cls-37" x="58.39" y="418.5" width="34.37" height="34.37"/><rect class="cls-37" x="58.39" y="468.5" width="34.37" height="34.37"/><rect class="cls-38" x="58.39" y="518.5" width="34.37" height="34.37"/><text class="cls-7" transform="translate(181.58 435.69)"><tspan class="cls-28">T</tspan><tspan x="6.34" y="0">u</tspan><tspan class="cls-13" x="14.07" y="0">r</tspan><tspan class="cls-29" x="18.71" y="0">k</tspan><tspan x="25.54" y="0">ana </tspan><tspan class="cls-39" x="0" y="16.83">C</tspan><tspan x="7.98" y="16.83">ou</tspan><tspan class="cls-25" x="23.41" y="16.83">n</tspan><tspan class="cls-40" x="31.14" y="16.83">t</tspan><tspan x="35.91" y="16.83">y</tspan></text><text class="cls-7" transform="translate(177.58 485.69)"><tspan class="cls-41">G</tspan><tspan x="9.17" y="0">a</tspan><tspan class="cls-9" x="15.93" y="0">r</tspan><tspan x="20.58" y="0">issa</tspan><tspan class="cls-39" x="0" y="16.83">C</tspan><tspan x="7.98" y="16.83">ou</tspan><tspan class="cls-25" x="23.41" y="16.83">n</tspan><tspan class="cls-40" x="31.14" y="16.83">t</tspan><tspan x="35.91" y="16.83">y</tspan></text><text class="cls-7" transform="translate(181.58 535.69)"><tspan class="cls-39">C</tspan><tspan x="7.98" y="0">ou</tspan><tspan class="cls-25" x="23.41" y="0">n</tspan><tspan x="31.14" y="0">ties </tspan></text></svg>